<svg width="24" height="24" viewBox="0 0 24 24" fill="none" xmlns="http://www.w3.org/2000/svg">
<path d="M20.9893 19.8125L18.9268 3.3125C18.8811 2.94993 18.7046 2.6165 18.4305 2.37483C18.1564 2.13316 17.8035 1.99987 17.438 2H6.56301C6.19757 1.99987 5.84466 2.13316 5.57054 2.37483C5.29641 2.6165 5.11995 2.94993 5.07427 3.3125L3.01177 19.8125C2.98516 20.0237 3.0038 20.2381 3.06646 20.4415C3.12912 20.645 3.23435 20.8327 3.37517 20.9923C3.51599 21.152 3.68917 21.2798 3.8832 21.3673C4.07722 21.4548 4.28766 21.5001 4.50052 21.5H8.3152C8.64878 21.5001 8.97287 21.3889 9.23621 21.1842C9.49955 20.9794 9.68712 20.6927 9.76926 20.3694L12.0005 11.7444L14.2308 20.3638C14.3119 20.6883 14.4992 20.9763 14.7628 21.1822C15.0265 21.3881 15.3513 21.4999 15.6858 21.5H19.5005C19.7134 21.5001 19.9238 21.4548 20.1178 21.3673C20.3119 21.2798 20.485 21.152 20.6259 20.9923C20.7667 20.8327 20.8719 20.645 20.9346 20.4415C20.9972 20.2381 21.0159 20.0237 20.9893 19.8125ZM18.0849 8.675C17.5483 8.55183 17.0558 8.28397 16.6607 7.90052C16.2657 7.51706 15.9833 7.03268 15.8443 6.5H17.813L18.0849 8.675ZM17.438 3.5L17.6255 5H6.37551L6.56301 3.5H17.438ZM6.18801 6.5H8.15676C8.01771 7.03268 7.73533 7.51706 7.3403 7.90052C6.94528 8.28397 6.45272 8.55183 5.91614 8.675L6.18801 6.5ZM8.3152 20H4.50052L5.71927 10.2247C6.69611 10.121 7.61234 9.70099 8.32853 9.02864C9.04472 8.35628 9.52165 7.46836 9.68676 6.5H11.2505V8.65625L8.3152 20ZM15.684 19.9944L12.7505 8.65625V6.5H14.3143C14.4794 7.46836 14.9563 8.35628 15.6725 9.02864C16.3887 9.70099 17.3049 10.121 18.2818 10.2247L19.5005 20L15.684 19.9944Z" fill="black"/>
</svg>
