<svg width="24" height="24" viewBox="0 0 24 24" fill="none" xmlns="http://www.w3.org/2000/svg">
<path d="M20.4847 12.7863L14.7913 10.8888C14.4952 10.7899 14.2229 10.6305 13.9918 10.4207C13.7607 10.2108 13.5758 9.95523 13.4488 9.67007L11.2728 4.58226C11.2728 4.58226 11.2728 4.5757 11.2728 4.57288C11.1179 4.22534 10.8366 3.94968 10.4861 3.80172C10.1355 3.65377 9.7418 3.64457 9.3847 3.77601L2.28595 6.3532C1.99695 6.45905 1.74736 6.65098 1.57084 6.9031C1.39432 7.15523 1.29936 7.45542 1.29877 7.7632V18.6823C1.29877 19.0801 1.4568 19.4616 1.73811 19.7429C2.01941 20.0242 2.40094 20.1823 2.79877 20.1823H21.5488C21.9466 20.1823 22.3281 20.0242 22.6094 19.7429C22.8907 19.4616 23.0488 19.0801 23.0488 18.6823V16.3441C23.0488 15.557 22.8012 14.7899 22.341 14.1513C21.8808 13.5128 21.2314 13.0352 20.4847 12.7863ZM9.89752 5.18226L10.5641 6.74132L8.54283 7.47726C8.37702 7.53744 8.23773 7.65413 8.14944 7.80683C8.06114 7.95953 8.02949 8.13847 8.06005 8.31219C8.09061 8.48591 8.18142 8.64331 8.31652 8.75671C8.45163 8.87011 8.62238 8.93227 8.79877 8.93226C8.88612 8.93214 8.97276 8.91659 9.0547 8.88632L11.1547 8.1232L11.5991 9.16101L10.0428 9.72351C9.87431 9.78177 9.73207 9.89817 9.6416 10.0518C9.55114 10.2055 9.51838 10.3863 9.54919 10.5619C9.58 10.7376 9.67237 10.8965 9.80974 11.0101C9.94711 11.1238 10.1205 11.1848 10.2988 11.1823C10.3861 11.1821 10.4728 11.1666 10.5547 11.1363L12.2047 10.5363C12.394 10.8847 12.6369 11.2011 12.9247 11.4738L11.5428 11.9763C11.3764 12.036 11.2364 12.1527 11.1475 12.3056C11.0587 12.4585 11.0268 12.6379 11.0574 12.8121C11.088 12.9863 11.1792 13.1441 11.3149 13.2575C11.4505 13.371 11.6219 13.4329 11.7988 13.4323C11.886 13.432 11.9726 13.4168 12.0547 13.3873L14.6797 12.4329L20.0113 14.2094C20.3507 14.3229 20.6581 14.5158 20.9081 14.7719C21.1581 15.0281 21.3433 15.3402 21.4485 15.6823H2.79877V7.7632L9.89752 5.18226ZM2.79877 18.6823V17.1823H21.5488V18.6823H2.79877Z" fill="black"/>
</svg>
